<svg width="892" height="200" viewBox="0 0 892 200" fill="none" xmlns="http://www.w3.org/2000/svg">
<rect width="892" height="200" fill="#FFCF38"/>
<path d="M217.817 107.4L233.117 108.75V146.7C232.517 146.9 231.567 147.15 230.267 147.45C228.967 147.75 227.567 147.9 226.067 147.9C223.267 147.9 221.167 147.35 219.767 146.25C218.467 145.15 217.817 143.35 217.817 140.85V107.4ZM233.117 116.4L217.817 115.05V49.65C218.417 49.45 219.367 49.2 220.667 48.9C221.967 48.6 223.317 48.45 224.717 48.45C227.617 48.45 229.717 49 231.017 50.1C232.417 51.1 233.117 52.9 233.117 55.5V116.4ZM281.396 137.1C284.996 137.1 288.046 136.75 290.546 136.05C293.146 135.25 295.046 134.5 296.246 133.8V114.45L279.596 116.1C274.996 116.5 271.496 117.55 269.096 119.25C266.796 120.85 265.646 123.25 265.646 126.45C265.646 129.75 266.946 132.35 269.546 134.25C272.146 136.15 276.096 137.1 281.396 137.1ZM280.946 74.7C290.246 74.7 297.596 76.75 302.996 80.85C308.496 84.85 311.246 91.2 311.246 99.9V134.85C311.246 137.15 310.746 138.95 309.746 140.25C308.746 141.55 307.346 142.7 305.546 143.7C302.946 145.2 299.546 146.45 295.346 147.45C291.246 148.55 286.596 149.1 281.396 149.1C271.696 149.1 264.096 147.25 258.596 143.55C253.196 139.75 250.496 134.2 250.496 126.9C250.496 120.3 252.646 115.25 256.946 111.75C261.246 108.15 267.346 106 275.246 105.3L296.246 103.2V99.75C296.246 95.25 294.796 92 291.896 90C288.996 88 285.046 87 280.046 87C276.046 87 272.146 87.55 268.346 88.65C264.646 89.75 261.346 91 258.446 92.4C257.546 91.6 256.746 90.65 256.046 89.55C255.346 88.35 254.996 87.1 254.996 85.8C254.996 82.7 256.696 80.35 260.096 78.75C262.896 77.45 266.096 76.45 269.696 75.75C273.396 75.05 277.146 74.7 280.946 74.7ZM332.66 107.4L347.96 108.75V146.7C347.36 146.9 346.41 147.15 345.11 147.45C343.81 147.75 342.41 147.9 340.91 147.9C338.11 147.9 336.01 147.35 334.61 146.25C333.31 145.15 332.66 143.35 332.66 140.85V107.4ZM347.96 116.4L332.66 115.05V49.65C333.26 49.45 334.21 49.2 335.51 48.9C336.81 48.6 338.16 48.45 339.56 48.45C342.46 48.45 344.56 49 345.86 50.1C347.26 51.1 347.96 52.9 347.96 55.5V116.4ZM369.086 55.35C369.086 52.75 369.986 50.6 371.786 48.9C373.586 47.2 375.786 46.35 378.386 46.35C381.186 46.35 383.436 47.2 385.136 48.9C386.836 50.6 387.686 52.75 387.686 55.35C387.686 57.85 386.836 60 385.136 61.8C383.436 63.5 381.186 64.35 378.386 64.35C375.786 64.35 373.586 63.5 371.786 61.8C369.986 60 369.086 57.85 369.086 55.35ZM370.736 107.4H386.186V146.7C385.486 146.9 384.486 147.15 383.186 147.45C381.986 147.75 380.636 147.9 379.136 147.9C376.336 147.9 374.236 147.35 372.836 146.25C371.436 145.15 370.736 143.35 370.736 140.85V107.4ZM386.186 115.05H370.736V77.25C371.436 77.05 372.436 76.85 373.736 76.65C375.036 76.35 376.436 76.2 377.936 76.2C380.736 76.2 382.786 76.75 384.086 77.85C385.486 78.85 386.186 80.65 386.186 83.25V115.05ZM407.932 107.4H423.232V126.6C423.232 130.2 424.282 132.75 426.382 134.25C428.482 135.75 431.432 136.5 435.232 136.5C436.832 136.5 438.632 136.25 440.632 135.75C442.632 135.25 444.282 134.65 445.582 133.95C446.282 134.65 446.882 135.55 447.382 136.65C447.982 137.65 448.282 138.8 448.282 140.1C448.282 142.7 446.932 144.85 444.232 146.55C441.632 148.15 437.682 148.95 432.382 148.95C424.982 148.95 419.032 147.3 414.532 144C410.132 140.7 407.932 135.2 407.932 127.5V107.4ZM416.632 90.6V78.3H446.482C446.882 78.9 447.232 79.75 447.532 80.85C447.932 81.95 448.132 83.1 448.132 84.3C448.132 86.4 447.632 88 446.632 89.1C445.732 90.1 444.432 90.6 442.732 90.6H416.632ZM423.232 111.6H407.932V57.45C408.532 57.25 409.482 57 410.782 56.7C412.082 56.4 413.482 56.25 414.982 56.25C417.782 56.25 419.832 56.8 421.132 57.9C422.532 59 423.232 60.8 423.232 63.3V111.6ZM491.308 137.1C494.908 137.1 497.958 136.75 500.458 136.05C503.058 135.25 504.958 134.5 506.158 133.8V114.45L489.508 116.1C484.908 116.5 481.408 117.55 479.008 119.25C476.708 120.85 475.558 123.25 475.558 126.45C475.558 129.75 476.858 132.35 479.458 134.25C482.058 136.15 486.008 137.1 491.308 137.1ZM490.858 74.7C500.158 74.7 507.508 76.75 512.908 80.85C518.408 84.85 521.158 91.2 521.158 99.9V134.85C521.158 137.15 520.658 138.95 519.658 140.25C518.658 141.55 517.258 142.7 515.458 143.7C512.858 145.2 509.458 146.45 505.258 147.45C501.158 148.55 496.508 149.1 491.308 149.1C481.608 149.1 474.008 147.25 468.508 143.55C463.108 139.75 460.408 134.2 460.408 126.9C460.408 120.3 462.558 115.25 466.858 111.75C471.158 108.15 477.258 106 485.158 105.3L506.158 103.2V99.75C506.158 95.25 504.708 92 501.808 90C498.908 88 494.958 87 489.958 87C485.958 87 482.058 87.55 478.258 88.65C474.558 89.75 471.258 91 468.358 92.4C467.458 91.6 466.658 90.65 465.958 89.55C465.258 88.35 464.908 87.1 464.908 85.8C464.908 82.7 466.608 80.35 470.008 78.75C472.808 77.45 476.008 76.45 479.608 75.75C483.308 75.05 487.058 74.7 490.858 74.7ZM587.272 98.1C585.672 103.9 583.922 109.8 582.022 115.8C580.122 121.8 578.272 127.4 576.472 132.6C574.772 137.8 573.222 142.2 571.822 145.8C570.922 146.5 569.772 147.05 568.372 147.45C567.072 147.85 565.372 148.05 563.272 148.05C561.072 148.05 559.072 147.7 557.272 147C555.472 146.3 554.272 145.25 553.672 143.85C552.672 141.85 551.572 138.95 550.372 135.15C549.172 131.35 547.922 127.05 546.622 122.25C545.322 117.35 543.972 112.3 542.572 107.1C541.272 101.9 540.072 96.85 538.972 91.95C537.972 87.05 537.072 82.7 536.272 78.9C537.172 78 538.272 77.2 539.572 76.5C540.972 75.8 542.622 75.45 544.522 75.45C546.822 75.45 548.572 76.05 549.772 77.25C551.072 78.35 551.922 80.25 552.322 82.95C553.322 87.95 554.322 93.1 555.322 98.4C556.322 103.6 557.322 108.55 558.322 113.25C559.422 117.85 560.372 121.95 561.172 125.55C562.072 129.05 562.772 131.65 563.272 133.35H563.872C564.572 131.05 565.672 127.3 567.172 122.1C568.772 116.8 570.622 110.8 572.722 104.1C574.922 97.4 577.072 90.6 579.172 83.7C580.272 83 581.472 82.5 582.772 82.2C584.172 81.9 585.672 81.75 587.272 81.75C589.572 81.75 591.472 82.15 592.972 82.95C594.472 83.65 595.472 84.75 595.972 86.25C598.172 92.95 600.222 99.45 602.122 105.75C604.022 112.05 605.722 117.65 607.222 122.55C608.722 127.45 609.772 131.1 610.372 133.5H611.122C613.122 124.9 615.272 115.75 617.572 106.05C619.872 96.25 621.772 86.65 623.272 77.25C625.172 76.05 627.422 75.45 630.022 75.45C632.122 75.45 633.822 75.95 635.122 76.95C636.522 77.85 637.222 79.4 637.222 81.6C637.222 82.8 636.872 85 636.172 88.2C635.572 91.3 634.772 94.95 633.772 99.15C632.772 103.25 631.622 107.65 630.322 112.35C629.022 116.95 627.722 121.45 626.422 125.85C625.122 130.15 623.872 134.05 622.672 137.55C621.572 141.05 620.572 143.8 619.672 145.8C618.972 146.4 617.822 146.9 616.222 147.3C614.622 147.8 612.872 148.05 610.972 148.05C605.772 148.05 602.722 146.8 601.822 144.3C600.522 141 599.022 136.85 597.322 131.85C595.722 126.85 594.022 121.45 592.222 115.65C590.522 109.75 588.872 103.9 587.272 98.1ZM719.315 111.9C719.315 119.4 717.865 125.95 714.965 131.55C712.065 137.15 707.965 141.5 702.665 144.6C697.365 147.6 691.115 149.1 683.915 149.1C676.715 149.1 670.465 147.6 665.165 144.6C659.865 141.5 655.765 137.2 652.865 131.7C649.965 126.1 648.515 119.5 648.515 111.9C648.515 104.3 649.965 97.75 652.865 92.25C655.865 86.65 660.015 82.35 665.315 79.35C670.715 76.25 676.915 74.7 683.915 74.7C691.015 74.7 697.215 76.25 702.515 79.35C707.815 82.35 711.915 86.65 714.815 92.25C717.815 97.75 719.315 104.3 719.315 111.9ZM683.915 87.15C677.915 87.15 673.115 89.35 669.515 93.75C666.015 98.15 664.265 104.2 664.265 111.9C664.265 119.7 665.965 125.8 669.365 130.2C672.865 134.5 677.715 136.65 683.915 136.65C690.115 136.65 694.915 134.45 698.315 130.05C701.815 125.65 703.565 119.6 703.565 111.9C703.565 104.2 701.815 98.15 698.315 93.75C694.815 89.35 690.015 87.15 683.915 87.15ZM751.647 91.8V113.85H736.197V91.5C736.197 89.1 736.697 87.15 737.697 85.65C738.797 84.05 740.397 82.55 742.497 81.15C745.297 79.35 748.947 77.85 753.447 76.65C758.047 75.45 763.047 74.85 768.447 74.85C777.147 74.85 781.497 77.3 781.497 82.2C781.497 83.4 781.297 84.5 780.897 85.5C780.597 86.5 780.197 87.4 779.697 88.2C778.697 88 777.397 87.8 775.797 87.6C774.297 87.4 772.747 87.3 771.147 87.3C767.047 87.3 763.297 87.75 759.897 88.65C756.597 89.45 753.847 90.5 751.647 91.8ZM736.197 107.4L751.647 108.75V146.7C750.947 146.9 749.947 147.15 748.647 147.45C747.447 147.75 746.097 147.9 744.597 147.9C741.797 147.9 739.697 147.35 738.297 146.25C736.897 145.15 736.197 143.35 736.197 140.85V107.4ZM817.447 116.25L807.247 109.05L841.297 75.45C844.397 75.55 846.847 76.3 848.647 77.7C850.447 79 851.347 80.75 851.347 82.95C851.347 84.75 850.747 86.35 849.547 87.75C848.447 89.15 846.747 90.8 844.447 92.7L817.447 116.25ZM807.247 111.3L818.797 105.45L855.247 138.9C854.947 141.7 854.097 143.95 852.697 145.65C851.297 147.25 849.347 148.05 846.847 148.05C844.947 148.05 843.197 147.55 841.597 146.55C839.997 145.55 838.347 144.1 836.647 142.2L807.247 111.3ZM794.797 106.95L810.247 108.3V146.7C809.547 146.9 808.547 147.15 807.247 147.45C806.047 147.75 804.697 147.9 803.197 147.9C800.397 147.9 798.297 147.35 796.897 146.25C795.497 145.15 794.797 143.35 794.797 140.85V106.95ZM810.247 115.95L794.797 114.6V49.65C795.497 49.45 796.497 49.2 797.797 48.9C799.097 48.6 800.497 48.45 801.997 48.45C804.797 48.45 806.847 49 808.147 50.1C809.547 51.1 810.247 52.9 810.247 55.5V115.95Z" fill="#33673F"/>
<path d="M36.1267 40L72.9107 40.0001L72.9152 106.82L60.6889 106.787C60.228 89.004 60.6265 71.0964 60.6265 53.3006L48.3762 53.2906L48.3717 119.884C84.5316 120.364 120.74 119.836 156.907 119.942L156.917 160L122.334 159.997L36.1615 159.983L36.1312 146.529L144.655 146.554L144.692 133.232L36.1571 133.241C35.763 102.183 36.133 71.0643 36.1267 40Z" fill="#33673F"/>
</svg>
