<svg width="711" height="200" viewBox="0 0 711 200" fill="none" xmlns="http://www.w3.org/2000/svg">
<rect width="711" height="200" fill="#FFCF38"/>
<path d="M40.8166 107.4L56.1166 108.75V146.7C55.5166 146.9 54.5666 147.15 53.2666 147.45C51.9666 147.75 50.5666 147.9 49.0666 147.9C46.2666 147.9 44.1666 147.35 42.7666 146.25C41.4666 145.15 40.8166 143.35 40.8166 140.85V107.4ZM56.1166 116.4L40.8166 115.05V49.65C41.4166 49.45 42.3666 49.2 43.6666 48.9C44.9666 48.6 46.3166 48.45 47.7166 48.45C50.6166 48.45 52.7166 49 54.0166 50.1C55.4166 51.1 56.1166 52.9 56.1166 55.5V116.4ZM104.396 137.1C107.996 137.1 111.046 136.75 113.546 136.05C116.146 135.25 118.046 134.5 119.246 133.8V114.45L102.596 116.1C97.9955 116.5 94.4955 117.55 92.0955 119.25C89.7955 120.85 88.6455 123.25 88.6455 126.45C88.6455 129.75 89.9455 132.35 92.5455 134.25C95.1455 136.15 99.0955 137.1 104.396 137.1ZM103.946 74.7C113.246 74.7 120.596 76.75 125.996 80.85C131.496 84.85 134.246 91.2 134.246 99.9V134.85C134.246 137.15 133.746 138.95 132.746 140.25C131.746 141.55 130.346 142.7 128.546 143.7C125.946 145.2 122.546 146.45 118.346 147.45C114.246 148.55 109.596 149.1 104.396 149.1C94.6955 149.1 87.0955 147.25 81.5955 143.55C76.1955 139.75 73.4955 134.2 73.4955 126.9C73.4955 120.3 75.6455 115.25 79.9455 111.75C84.2455 108.15 90.3455 106 98.2455 105.3L119.246 103.2V99.75C119.246 95.25 117.796 92 114.896 90C111.996 88 108.046 87 103.046 87C99.0455 87 95.1455 87.55 91.3455 88.65C87.6455 89.75 84.3455 91 81.4455 92.4C80.5455 91.6 79.7455 90.65 79.0455 89.55C78.3455 88.35 77.9955 87.1 77.9955 85.8C77.9955 82.7 79.6955 80.35 83.0955 78.75C85.8955 77.45 89.0955 76.45 92.6955 75.75C96.3955 75.05 100.146 74.7 103.946 74.7ZM155.66 107.4L170.96 108.75V146.7C170.36 146.9 169.41 147.15 168.11 147.45C166.81 147.75 165.41 147.9 163.91 147.9C161.11 147.9 159.01 147.35 157.61 146.25C156.31 145.15 155.66 143.35 155.66 140.85V107.4ZM170.96 116.4L155.66 115.05V49.65C156.26 49.45 157.21 49.2 158.51 48.9C159.81 48.6 161.16 48.45 162.56 48.45C165.46 48.45 167.56 49 168.86 50.1C170.26 51.1 170.96 52.9 170.96 55.5V116.4ZM192.086 55.35C192.086 52.75 192.986 50.6 194.786 48.9C196.586 47.2 198.786 46.35 201.386 46.35C204.186 46.35 206.436 47.2 208.136 48.9C209.836 50.6 210.686 52.75 210.686 55.35C210.686 57.85 209.836 60 208.136 61.8C206.436 63.5 204.186 64.35 201.386 64.35C198.786 64.35 196.586 63.5 194.786 61.8C192.986 60 192.086 57.85 192.086 55.35ZM193.736 107.4H209.186V146.7C208.486 146.9 207.486 147.15 206.186 147.45C204.986 147.75 203.636 147.9 202.136 147.9C199.336 147.9 197.236 147.35 195.836 146.25C194.436 145.15 193.736 143.35 193.736 140.85V107.4ZM209.186 115.05H193.736V77.25C194.436 77.05 195.436 76.85 196.736 76.65C198.036 76.35 199.436 76.2 200.936 76.2C203.736 76.2 205.786 76.75 207.086 77.85C208.486 78.85 209.186 80.65 209.186 83.25V115.05ZM230.932 107.4H246.232V126.6C246.232 130.2 247.282 132.75 249.382 134.25C251.482 135.75 254.432 136.5 258.232 136.5C259.832 136.5 261.632 136.25 263.632 135.75C265.632 135.25 267.282 134.65 268.582 133.95C269.282 134.65 269.882 135.55 270.382 136.65C270.982 137.65 271.282 138.8 271.282 140.1C271.282 142.7 269.932 144.85 267.232 146.55C264.632 148.15 260.682 148.95 255.382 148.95C247.982 148.95 242.032 147.3 237.532 144C233.132 140.7 230.932 135.2 230.932 127.5V107.4ZM239.632 90.6V78.3H269.482C269.882 78.9 270.232 79.75 270.532 80.85C270.932 81.95 271.132 83.1 271.132 84.3C271.132 86.4 270.632 88 269.632 89.1C268.732 90.1 267.432 90.6 265.732 90.6H239.632ZM246.232 111.6H230.932V57.45C231.532 57.25 232.482 57 233.782 56.7C235.082 56.4 236.482 56.25 237.982 56.25C240.782 56.25 242.832 56.8 244.132 57.9C245.532 59 246.232 60.8 246.232 63.3V111.6ZM314.308 137.1C317.908 137.1 320.958 136.75 323.458 136.05C326.058 135.25 327.958 134.5 329.158 133.8V114.45L312.508 116.1C307.908 116.5 304.408 117.55 302.008 119.25C299.708 120.85 298.558 123.25 298.558 126.45C298.558 129.75 299.858 132.35 302.458 134.25C305.058 136.15 309.008 137.1 314.308 137.1ZM313.858 74.7C323.158 74.7 330.508 76.75 335.908 80.85C341.408 84.85 344.158 91.2 344.158 99.9V134.85C344.158 137.15 343.658 138.95 342.658 140.25C341.658 141.55 340.258 142.7 338.458 143.7C335.858 145.2 332.458 146.45 328.258 147.45C324.158 148.55 319.508 149.1 314.308 149.1C304.608 149.1 297.008 147.25 291.508 143.55C286.108 139.75 283.408 134.2 283.408 126.9C283.408 120.3 285.558 115.25 289.858 111.75C294.158 108.15 300.258 106 308.158 105.3L329.158 103.2V99.75C329.158 95.25 327.708 92 324.808 90C321.908 88 317.958 87 312.958 87C308.958 87 305.058 87.55 301.258 88.65C297.558 89.75 294.258 91 291.358 92.4C290.458 91.6 289.658 90.65 288.958 89.55C288.258 88.35 287.908 87.1 287.908 85.8C287.908 82.7 289.608 80.35 293.008 78.75C295.808 77.45 299.008 76.45 302.608 75.75C306.308 75.05 310.058 74.7 313.858 74.7ZM410.272 98.1C408.672 103.9 406.922 109.8 405.022 115.8C403.122 121.8 401.272 127.4 399.472 132.6C397.772 137.8 396.222 142.2 394.822 145.8C393.922 146.5 392.772 147.05 391.372 147.45C390.072 147.85 388.372 148.05 386.272 148.05C384.072 148.05 382.072 147.7 380.272 147C378.472 146.3 377.272 145.25 376.672 143.85C375.672 141.85 374.572 138.95 373.372 135.15C372.172 131.35 370.922 127.05 369.622 122.25C368.322 117.35 366.972 112.3 365.572 107.1C364.272 101.9 363.072 96.85 361.972 91.95C360.972 87.05 360.072 82.7 359.272 78.9C360.172 78 361.272 77.2 362.572 76.5C363.972 75.8 365.622 75.45 367.522 75.45C369.822 75.45 371.572 76.05 372.772 77.25C374.072 78.35 374.922 80.25 375.322 82.95C376.322 87.95 377.322 93.1 378.322 98.4C379.322 103.6 380.322 108.55 381.322 113.25C382.422 117.85 383.372 121.95 384.172 125.55C385.072 129.05 385.772 131.65 386.272 133.35H386.872C387.572 131.05 388.672 127.3 390.172 122.1C391.772 116.8 393.622 110.8 395.722 104.1C397.922 97.4 400.072 90.6 402.172 83.7C403.272 83 404.472 82.5 405.772 82.2C407.172 81.9 408.672 81.75 410.272 81.75C412.572 81.75 414.472 82.15 415.972 82.95C417.472 83.65 418.472 84.75 418.972 86.25C421.172 92.95 423.222 99.45 425.122 105.75C427.022 112.05 428.722 117.65 430.222 122.55C431.722 127.45 432.772 131.1 433.372 133.5H434.122C436.122 124.9 438.272 115.75 440.572 106.05C442.872 96.25 444.772 86.65 446.272 77.25C448.172 76.05 450.422 75.45 453.022 75.45C455.122 75.45 456.822 75.95 458.122 76.95C459.522 77.85 460.222 79.4 460.222 81.6C460.222 82.8 459.872 85 459.172 88.2C458.572 91.3 457.772 94.95 456.772 99.15C455.772 103.25 454.622 107.65 453.322 112.35C452.022 116.95 450.722 121.45 449.422 125.85C448.122 130.15 446.872 134.05 445.672 137.55C444.572 141.05 443.572 143.8 442.672 145.8C441.972 146.4 440.822 146.9 439.222 147.3C437.622 147.8 435.872 148.05 433.972 148.05C428.772 148.05 425.722 146.8 424.822 144.3C423.522 141 422.022 136.85 420.322 131.85C418.722 126.85 417.022 121.45 415.222 115.65C413.522 109.75 411.872 103.9 410.272 98.1ZM542.315 111.9C542.315 119.4 540.865 125.95 537.965 131.55C535.065 137.15 530.965 141.5 525.665 144.6C520.365 147.6 514.115 149.1 506.915 149.1C499.715 149.1 493.465 147.6 488.165 144.6C482.865 141.5 478.765 137.2 475.865 131.7C472.965 126.1 471.515 119.5 471.515 111.9C471.515 104.3 472.965 97.75 475.865 92.25C478.865 86.65 483.015 82.35 488.315 79.35C493.715 76.25 499.915 74.7 506.915 74.7C514.015 74.7 520.215 76.25 525.515 79.35C530.815 82.35 534.915 86.65 537.815 92.25C540.815 97.75 542.315 104.3 542.315 111.9ZM506.915 87.15C500.915 87.15 496.115 89.35 492.515 93.75C489.015 98.15 487.265 104.2 487.265 111.9C487.265 119.7 488.965 125.8 492.365 130.2C495.865 134.5 500.715 136.65 506.915 136.65C513.115 136.65 517.915 134.45 521.315 130.05C524.815 125.65 526.565 119.6 526.565 111.9C526.565 104.2 524.815 98.15 521.315 93.75C517.815 89.35 513.015 87.15 506.915 87.15ZM574.647 91.8V113.85H559.197V91.5C559.197 89.1 559.697 87.15 560.697 85.65C561.797 84.05 563.397 82.55 565.497 81.15C568.297 79.35 571.947 77.85 576.447 76.65C581.047 75.45 586.047 74.85 591.447 74.85C600.147 74.85 604.497 77.3 604.497 82.2C604.497 83.4 604.297 84.5 603.897 85.5C603.597 86.5 603.197 87.4 602.697 88.2C601.697 88 600.397 87.8 598.797 87.6C597.297 87.4 595.747 87.3 594.147 87.3C590.047 87.3 586.297 87.75 582.897 88.65C579.597 89.45 576.847 90.5 574.647 91.8ZM559.197 107.4L574.647 108.75V146.7C573.947 146.9 572.947 147.15 571.647 147.45C570.447 147.75 569.097 147.9 567.597 147.9C564.797 147.9 562.697 147.35 561.297 146.25C559.897 145.15 559.197 143.35 559.197 140.85V107.4ZM640.447 116.25L630.247 109.05L664.297 75.45C667.397 75.55 669.847 76.3 671.647 77.7C673.447 79 674.347 80.75 674.347 82.95C674.347 84.75 673.747 86.35 672.547 87.75C671.447 89.15 669.747 90.8 667.447 92.7L640.447 116.25ZM630.247 111.3L641.797 105.45L678.247 138.9C677.947 141.7 677.097 143.95 675.697 145.65C674.297 147.25 672.347 148.05 669.847 148.05C667.947 148.05 666.197 147.55 664.597 146.55C662.997 145.55 661.347 144.1 659.647 142.2L630.247 111.3ZM617.797 106.95L633.247 108.3V146.7C632.547 146.9 631.547 147.15 630.247 147.45C629.047 147.75 627.697 147.9 626.197 147.9C623.397 147.9 621.297 147.35 619.897 146.25C618.497 145.15 617.797 143.35 617.797 140.85V106.95ZM633.247 115.95L617.797 114.6V49.65C618.497 49.45 619.497 49.2 620.797 48.9C622.097 48.6 623.497 48.45 624.997 48.45C627.797 48.45 629.847 49 631.147 50.1C632.547 51.1 633.247 52.9 633.247 55.5V115.95Z" fill="#33673F"/>
</svg>
